<svg width="23.999999999999996" height="23.999999999999996" fill="#e0e0e0" xmlns="http://www.w3.org/2000/svg" preserveAspectRatio="xMinYMin">
 <g>
  <g id="svg_5">
   <g id="svg_3">
    <rect fill="none" id="canvas_background" height="26" width="26" y="0.762295" x="1.090164"/>
   </g>
   <g id="svg_4">
    <path id="svg_1" d="m8.661284,11.717995a0.56715,0.54534 0 0 1 0.80103,0a0.56481,0.54309 0 0 1 0,0.76852l-1.20154,1.15363a1.12962,1.08617 0 0 0 0,1.53762a1.1343,1.09067 0 0 0 1.60205,0l2.80301,-2.69125a0.56481,0.54309 0 0 0 0,-0.76852a0.56481,0.54309 0 0 1 0,-0.76909a0.56715,0.54534 0 0 1 0.80102,0a1.69443,1.62925 0 0 1 0,2.3067l-2.80359,2.69125a2.26802,2.18077 0 0 1 -3.2041,0a2.25925,2.17234 0 0 1 0,-3.07523l1.20212,-1.1542l0,0.00057zm6.79411,-0.38849a0.56715,0.54534 0 0 1 -0.80102,0a0.56481,0.54309 0 0 1 0,-0.76852l1.20153,-1.15363a1.12962,1.08617 0 0 0 0,-1.53762a1.1343,1.09067 0 0 0 -1.60205,0l-2.80243,2.69181a0.56481,0.54309 0 0 0 0,0.76853a0.56481,0.54309 0 0 1 0,0.76909a0.56715,0.54534 0 0 1 -0.80102,0a1.69443,1.62925 0 0 1 0,-2.30671l2.80359,-2.69124a2.26802,2.18077 0 0 1 3.20411,0a2.25925,2.17234 0 0 1 0,3.07523l-1.20271,1.15419l0,-0.00112l0,-0.00001z" stroke="null"/>
    <path id="svg_2" d="m6.059154,3.762295a2,2 0 0 0 -2,2l0,12a2,2 0 0 0 2,2l12,0a2,2 0 0 0 2,-2l0,-12a2,2 0 0 0 -2,-2l-12,0zm0,-2l12,0a4,4 0 0 1 4,4l0,12a4,4 0 0 1 -4,4l-12,0a4,4 0 0 1 -4,-4l0,-12a4,4 0 0 1 4,-4z"/>
   </g>
  </g>
 </g>
</svg>