<svg xmlns="http://www.w3.org/2000/svg" viewBox="0 0 64.076 38.446">
  <path id="vr-cardboard-solid" d="M60.872,64H3.2A3.2,3.2,0,0,0,0,67.2V99.242a3.2,3.2,0,0,0,3.2,3.2H19.245a6.406,6.406,0,0,0,5.843-3.779L27.865,92.5a4.471,4.471,0,0,1,8.346,0l2.777,6.171a6.407,6.407,0,0,0,5.843,3.779H60.872a3.2,3.2,0,0,0,3.2-3.2V67.2A3.2,3.2,0,0,0,60.872,64ZM16.019,88.029a6.408,6.408,0,1,1,6.408-6.408A6.407,6.407,0,0,1,16.019,88.029Zm32.038,0a6.408,6.408,0,1,1,6.408-6.408A6.407,6.407,0,0,1,48.057,88.029Z" transform="translate(0 -64)" fill="#475de6"/>
</svg>
