<svg xmlns="http://www.w3.org/2000/svg" viewBox="0 0 64.076 38.446">
  <path id="bicycle-solid" d="M51.312,76.815a12.784,12.784,0,0,0-4.649.851l-7.777-12.53A2.4,2.4,0,0,0,36.844,64H30.436a1.6,1.6,0,0,0-1.6,1.6v1.6a1.6,1.6,0,0,0,1.6,1.6h5.071L37,71.209H25.631v-1.6a1.6,1.6,0,0,0-1.6-1.6H15.272a2.447,2.447,0,0,0-2.457,2.447,2.4,2.4,0,0,0,2.4,2.359H20.1l-2.945,4.758a12.816,12.816,0,1,0,8.075,15.266h5.209A2.4,2.4,0,0,0,32.479,91.7l8.606-13.9,1.5,2.41a12.781,12.781,0,0,0-4.136,9.455,12.981,12.981,0,0,0,12.688,12.787,12.815,12.815,0,1,0,.178-25.63ZM18.7,84.2a7.994,7.994,0,0,1,1.967,3.827H16.328ZM12.815,97.64a8.01,8.01,0,1,1,1.712-15.833l-4.556,7.36a2.4,2.4,0,0,0,2.043,3.668h8.14A8.02,8.02,0,0,1,12.815,97.64ZM29.1,88.029H25.531a12.79,12.79,0,0,0-4.243-8.012l2.478-4h12.77L29.1,88.029Zm21.732,9.6a8,8,0,0,1-5.636-13.218l4.449,7.167a1.6,1.6,0,0,0,2.206.516l1.361-.845a1.6,1.6,0,0,0,.516-2.206l-4.452-7.173a8.01,8.01,0,1,1,1.556,15.758Z" transform="translate(0 -64)" fill="#475de6"/>
</svg>
