<svg xmlns="http://www.w3.org/2000/svg" viewBox="0 0 36.427 50.093">
  <path id="Path_6" data-name="Path 6" d="M38.213,58.583A18.213,18.213,0,0,0,56.427,40.369h0c0-4.092-1.026-6.9-3.3-10.515-.1-.158-1.069-1.688-1.214-1.961a13.2,13.2,0,0,1-.85-1.615A18.753,18.753,0,0,1,49.815,21.8c-.085-.534-.2-1.931-.2-1.931a11.383,11.383,0,1,0-22.767,0s-.115,1.4-.2,1.937A18.748,18.748,0,0,1,25.4,26.284a13.2,13.2,0,0,1-.85,1.615c-.164.273-1.135,1.821-1.214,1.961C21.026,33.46,20,36.271,20,40.369A18.213,18.213,0,0,0,38.213,58.583Zm0-42.4a9.265,9.265,0,0,0,6.751,4.76,6.83,6.83,0,0,1-13.5,0,9.265,9.265,0,0,0,6.751-4.76ZM24.553,40.369h0c0-.395,0-.777.036-1.141a16.5,16.5,0,0,0,13.624-8.135,16.5,16.5,0,0,0,13.624,8.129c0,.364.036.747.036,1.141h0a13.66,13.66,0,1,1-27.32,0Z" transform="translate(-20 -8.49)" fill="#475de6"/>
</svg>
